<svg xmlns="http://www.w3.org/2000/svg" id="Layer_1" height="512" viewBox="0 0 512 512" width="512"><g><path d="m304.72 199.54c0 52.82 42.82 95.64 95.64 95.64s95.64-42.82 95.64-95.64-42.82-95.64-95.64-95.64-95.64 42.82-95.64 95.64zm111.1 49.79c-1.16 7.5-7.64 13.23-15.46 13.23s-14.3-5.74-15.46-13.23c-.2-1.26.76-2.42 2.04-2.42h26.84c1.28 0 2.24 1.15 2.04 2.42zm-64.26-18.89c0-3.28 1.07-6.46 3.05-9.07l4.33-5.71c3.31-4.36 5.28-9.59 5.67-15.05l1.39-19.46c1.1-15.43 12.25-27.87 26.77-31.14-.01-.28-.03-.56-.03-.85 0-6.98 3.41-12.64 7.61-12.64s7.61 5.66 7.61 12.64c0 .29-.01.57-.03.85 14.52 3.27 25.67 15.71 26.77 31.14l1.39 19.46c.39 5.46 2.36 10.69 5.67 15.05l4.33 5.71c1.98 2.61 3.05 5.8 3.05 9.07v3.79c0 2.72-2.2 4.92-4.92 4.92h-87.76c-2.72 0-4.92-2.2-4.92-4.92v-3.79z"></path><path d="m38.4 498.13h388.89c6.62 0 12.66-2.5 17.25-6.6.03-.02.06-.05.08-.07 5.26-4.74 8.56-11.6 8.56-19.22v-177.06c0-1.93-1.57-3.5-3.5-3.5s-3.5 1.57-3.5 3.5v177.06c0 4.43-1.55 8.51-4.11 11.74l-175.05-141.63 65.2-52.75c1.5-1.22 1.74-3.42.52-4.92s-3.42-1.73-4.92-.52l-66.36 53.69-17.68-14.3c-6.34-5.13-15.54-5.13-21.88 0l-17.68 14.3-115.08-93.11v-159.84c0-5.8 4.72-10.52 10.52-10.52h266.36c5.8 0 10.52 4.72 10.52 10.52v6.58c0 1.93 1.57 3.5 3.5 3.5s3.5-1.57 3.5-3.5v-6.58c0-9.66-7.86-17.52-17.52-17.52h-62.42l-62.56-50.61c-4.75-3.84-11.65-3.84-16.4 0l-62.56 50.61h-62.42c-9.66 0-17.52 7.86-17.52 17.52v47.15l-58.41 47.26c-7.14 5.77-11.23 14.35-11.23 23.53v269.39c0 14.29 11.62 25.9 25.9 25.9zm190.64-475.92c2.2-1.78 5.4-1.78 7.6 0l26.46 21.4c-17.28-5.74-36.81-2.62-51.63 9.38l-17.79 14.39h-20.47zm-200.91 162.54 54.01-43.7v19.52l-23.79 19.24c-10.17 8.22-13.12 21.57-8.93 32.79l-26.7-21.6c1.4-2.34 3.22-4.47 5.41-6.25zm-8.63 18.09c0-1.7.19-3.38.54-5l178.62 144.51-160.28 129.67c-1.5 1.22-1.74 3.42-.52 4.92s3.42 1.73 4.92.52l183.52-148.48c3.79-3.06 9.28-3.06 13.07 0l197.3 159.62c-2.77 1.59-5.97 2.52-9.39 2.52h-388.88c-10.42 0-18.9-8.48-18.9-18.9z"></path><path d="m313.22 129.76c0-1.93-1.57-3.5-3.5-3.5h-163.69c-1.93 0-3.5 1.57-3.5 3.5s1.57 3.5 3.5 3.5h163.69c1.93 0 3.5-1.57 3.5-3.5z"></path><path d="m146.03 187.96h143.27c1.93 0 3.5-1.57 3.5-3.5s-1.57-3.5-3.5-3.5h-143.27c-1.93 0-3.5 1.57-3.5 3.5s1.56 3.5 3.5 3.5z"></path><path d="m146.03 242.65h146.37c1.93 0 3.5-1.57 3.5-3.5s-1.57-3.5-3.5-3.5h-146.37c-1.93 0-3.5 1.57-3.5 3.5s1.56 3.5 3.5 3.5z"></path></g></svg>